<?xml version="1.0" encoding="UTF-8"?>
<svg version="1.1" xmlns="http://www.w3.org/2000/svg" width="226" height="228">
<path d="M0 0 C0.91265625 0.73605469 1.8253125 1.47210937 2.765625 2.23046875 C16.7313395 14.14122811 27.26798397 30.24620708 33.75 47.3125 C34.03206299 48.04637939 34.31412598 48.78025879 34.60473633 49.53637695 C39.0486955 61.85120256 40.54069682 74.27939642 40.4375 87.3125 C40.43293793 88.32173019 40.43293793 88.32173019 40.42828369 89.35134888 C40.35513435 100.33984333 39.4196419 110.53547938 36 121 C35.78569336 121.6801416 35.57138672 122.3602832 35.35058594 123.06103516 C30.77111037 137.28273986 23.82351932 149.70108519 14 161 C12.95199219 162.24716797 12.95199219 162.24716797 11.8828125 163.51953125 C-1.35227046 178.85056151 -1.35227046 178.85056151 -9.26953125 180.80859375 C-10.62111328 180.90333984 -10.62111328 180.90333984 -12 181 C-13.84299544 179.15700456 -13.19643651 176.1565914 -13.24609375 173.68359375 C-13.29310425 171.71205322 -13.29310425 171.71205322 -13.34106445 169.70068359 C-13.35642242 169.0038446 -13.3717804 168.30700562 -13.38760376 167.58905029 C-14.14641832 132.76898177 -14.14641832 132.76898177 -30.76953125 102.97265625 C-38.33293985 96.28347701 -47.04896493 91.51374944 -56.57421875 88.265625 C-59.70114157 86.63418701 -60.57853351 85.20741158 -62 82 C-63.7317529 73.02742793 -63.52672346 64.63232635 -59.125 56.5625 C-56.2602314 53.10792609 -54.40566757 52.1539967 -49.93359375 51.6640625 C-34.50040132 51.4916246 -24.65823533 56.7787734 -13.5234375 67.3515625 C-0.86964242 80.70109889 6.22177607 97.20257676 10 115 C10.48301203 113.29274992 10.96121958 111.58414026 11.4375 109.875 C11.70433594 108.92367187 11.97117188 107.97234375 12.24609375 106.9921875 C17.85545799 84.72911492 13.15261473 61.67312915 2 42 C-9.6067597 22.897208 -28.02614487 9.13251182 -49.48828125 3.00390625 C-52.64910276 2.24195504 -55.80121604 1.58002307 -59 1 C-59.71542969 0.86851563 -60.43085937 0.73703125 -61.16796875 0.6015625 C-83.99994385 -2.88207906 -104.8419471 4.20292926 -124 16 C-124.495 16.495 -124.495 16.495 -125 17 C-126.66617115 17.04063832 -128.33388095 17.042721 -130 17 C-132.05250439 12.89499122 -131.27319834 7.63683056 -131.3125 3.125 C-131.34150391 2.02285156 -131.37050781 0.92070312 -131.40039062 -0.21484375 C-131.40876953 -1.27574219 -131.41714844 -2.33664063 -131.42578125 -3.4296875 C-131.44036377 -4.40147949 -131.45494629 -5.37327148 -131.4699707 -6.37451172 C-130.86347863 -9.76267576 -129.64615459 -10.86546091 -127 -13 C-124.54325277 -14.28767441 -122.17064962 -15.42762004 -119.625 -16.5 C-118.91746582 -16.80188232 -118.20993164 -17.10376465 -117.48095703 -17.41479492 C-77.98530713 -33.86027848 -32.92061792 -27.05492771 0 0 Z M-46 67 C-46.58528777 69.82981591 -46.58528777 69.82981591 -46 73 C-43.20726173 75.98758047 -41.34268404 77.78639118 -37.25 78.4375 C-34.80739337 78.18015448 -34.80739337 78.18015448 -33 76 C-33.083448 72.16139201 -33.56540303 70.47184814 -36.1875 67.625 C-39.05547509 65.96794772 -43.24077548 64.24077548 -46 67 Z " fill="#A40101" transform="translate(186,26)"/>
<path d="M0 0 C3.79131068 7.58262137 2.27154316 20.85618662 1 29 C-1.02343547 34.08962296 -4.74407454 37.59686939 -8.55908203 41.40332031 C-15.41981515 49.00569148 -19.42521753 60.31068703 -22 70 C-22.33644531 71.21236328 -22.33644531 71.21236328 -22.6796875 72.44921875 C-26.14205667 87.55558286 -24.86862775 104.39411675 -20 119 C-18.86475131 115.63173855 -17.76322998 112.25577262 -16.703125 108.86328125 C-10.1571326 88.18518091 0.55848318 69.96869562 20.265625 59.33984375 C27.55291019 55.769074 34.9509006 55.05244779 43 56 C47.49482174 58.17737823 49.52294877 60.66516035 52 65 C54.19136672 71.51643263 54.25555084 80.75551305 51.8125 87.1875 C48.85630444 91.7747 44.18550257 93.41334439 39.37841797 95.65014648 C24.52484148 102.65916692 15.1600917 112.34964681 9.1015625 127.69140625 C7.10116743 133.69968507 5.93297621 139.74635515 5 146 C4.80148438 147.01707031 4.60296875 148.03414062 4.3984375 149.08203125 C4.03056666 152.14049233 4.00592554 154.07732946 5 157 C18.35855525 171.81108977 41.49422997 177.8157295 60.61328125 179.1875 C77.74656115 179.63616199 95.26693492 174.82204339 109.51953125 165.3203125 C112.28421136 163.84871899 113.91399003 163.64454335 117 164 C119.59417075 166.59417075 118.23463158 173.88636876 118.25 177.375 C118.270625 178.53773438 118.29125 179.70046875 118.3125 180.8984375 C118.32023437 182.5690625 118.32023437 182.5690625 118.328125 184.2734375 C118.3374707 185.29872559 118.34681641 186.32401367 118.35644531 187.38037109 C118 190 118 190 116.62182617 191.7800293 C97.97215986 205.80868842 68.46358608 207.0631875 46.28515625 204.53125 C17.76457427 200.491535 -9.46914107 184.47704664 -27.1875 161.8125 C-42.658583 141.13518692 -50.40819291 117.74261453 -50.375 91.9375 C-50.37478851 91.25568665 -50.37457703 90.57387329 -50.37435913 89.87139893 C-50.34018236 78.81140872 -49.38061615 68.5755459 -46 58 C-45.649375 56.88753906 -45.29875 55.77507812 -44.9375 54.62890625 C-40.03184193 40.71250819 -32.8738174 27.95321321 -23 17 C-22.01386719 15.81857422 -22.01386719 15.81857422 -21.0078125 14.61328125 C-7.99213799 -0.78075948 -7.99213799 -0.78075948 0 0 Z M24 75 C22.86693843 77.01633305 22.86693843 77.01633305 23 79 C23.99 80.485 23.99 80.485 25 82 C27.8715965 82.66790364 27.8715965 82.66790364 31 82 C34.03103969 79.64252468 35.66828393 77.9509194 36.9375 74.3125 C36.958125 73.549375 36.97875 72.78625 37 72 C35.19260663 69.81984552 35.19260663 69.81984552 32.75 69.5625 C28.73448362 70.20133215 26.83063997 72.16936003 24 75 Z " fill="#E6C63F" transform="translate(50,22)"/>
<path d="M0 0 C1.11246094 0.00128906 2.22492188 0.00257812 3.37109375 0.00390625 C8.34632983 0.67985632 10.78937029 2.42813622 13.8125 6.375 C17.74979037 13.26525815 17.67272041 22.13991283 16.06640625 29.8046875 C13.77810865 35.82924502 8.38755388 37.55325243 2.94091797 40.08764648 C-11.91265852 47.09666692 -21.2774083 56.78714681 -27.3359375 72.12890625 C-29.33633257 78.13718507 -30.50452379 84.18385515 -31.4375 90.4375 C-31.73527344 91.96310547 -31.73527344 91.96310547 -32.0390625 93.51953125 C-32.40693334 96.57799233 -32.43157446 98.51482946 -31.4375 101.4375 C-18.07894475 116.24858977 5.05672997 122.2532295 24.17578125 123.625 C41.30906115 124.07366199 58.82943492 119.25954339 73.08203125 109.7578125 C75.84671136 108.28621899 77.47649003 108.08204335 80.5625 108.4375 C83.15667075 111.03167075 81.79713158 118.32386876 81.8125 121.8125 C81.8434375 123.55660156 81.8434375 123.55660156 81.875 125.3359375 C81.88273437 127.0065625 81.88273437 127.0065625 81.890625 128.7109375 C81.8999707 129.73622559 81.90931641 130.76151367 81.91894531 131.81787109 C81.5625 134.4375 81.5625 134.4375 80.18432617 136.2175293 C61.53465986 150.24618842 32.02608608 151.5006875 9.84765625 148.96875 C-18.67292573 144.929035 -45.90664107 128.91454664 -63.625 106.25 C-78.69689055 86.10621306 -86.8551488 63.00712286 -86.69824219 37.80249023 C-86.68746012 35.74238032 -86.69823149 33.68313156 -86.7109375 31.62304688 C-86.73207807 14.91973211 -86.73207807 14.91973211 -82.86425781 10.7355957 C-82.39342773 10.30722412 -81.92259766 9.87885254 -81.4375 9.4375 C-81.52221558 11.23429199 -81.52221558 11.23429199 -81.60864258 13.06738281 C-81.81509678 17.61414781 -81.98243564 22.16172994 -82.1394043 26.71044922 C-82.21181972 28.65975094 -82.29412496 30.60871637 -82.38745117 32.55712891 C-83.73129289 61.00545022 -75.215019 86.86195705 -56.27319336 108.34350586 C-54.05492009 110.77326458 -51.76427455 113.11072545 -49.4375 115.4375 C-48.71046875 116.16453125 -47.9834375 116.8915625 -47.234375 117.640625 C-24.11068891 139.39401858 5.58511521 146.28432536 36.46289062 145.57373047 C48.02670699 145.0654909 58.74375491 141.25314343 69.5625 137.4375 C72.5325 136.4475 75.5025 135.4575 78.5625 134.4375 C78.2325 126.8475 77.9025 119.2575 77.5625 111.4375 C76.139375 112.324375 74.71625 113.21125 73.25 114.125 C52.4732654 126.45755895 28.26835601 130.35250239 4.5 124.9375 C-8.79972136 121.47419948 -20.76171816 114.98950286 -31.4375 106.4375 C-32.18515625 105.96054688 -32.9328125 105.48359375 -33.703125 104.9921875 C-35.4375 103.4375 -35.4375 103.4375 -35.93359375 101.37109375 C-35.45713026 81.07374895 -30.59627579 62.60222789 -16.4375 47.4375 C-8.97262103 41.27666453 -1.29460539 37.18577825 7.76171875 33.921875 C10.67476228 32.68304476 10.67476228 32.68304476 11.93359375 30.19140625 C13.53097414 23.19666604 13.87360168 15.18741838 10.6875 8.625 C8.92685203 5.41295146 8.92685203 5.41295146 6.5625 4.4375 C3.67879667 4.36555131 0.82010336 4.34458292 -2.0625 4.375 C-2.86429687 4.37951172 -3.66609375 4.38402344 -4.4921875 4.38867188 C-6.47399006 4.40046832 -8.45575433 4.41840395 -10.4375 4.4375 C-7.19223958 0.43051586 -5.09243141 -0.08830806 0 0 Z " fill="#403E3A" transform="translate(86.4375,77.5625)"/>
<path d="M0 0 C1.11246094 0.00128906 2.22492188 0.00257812 3.37109375 0.00390625 C8.34632983 0.67985632 10.78937029 2.42813622 13.8125 6.375 C17.74979037 13.26525815 17.67272041 22.13991283 16.06640625 29.8046875 C13.77810865 35.82924502 8.38755388 37.55325243 2.94091797 40.08764648 C-11.91265852 47.09666692 -21.2774083 56.78714681 -27.3359375 72.12890625 C-29.33633257 78.13718507 -30.50452379 84.18385515 -31.4375 90.4375 C-31.63601562 91.45457031 -31.83453125 92.47164063 -32.0390625 93.51953125 C-32.40693334 96.57799233 -32.43157446 98.51482946 -31.4375 101.4375 C-18.07894475 116.24858977 5.05672997 122.2532295 24.17578125 123.625 C41.30906115 124.07366199 58.82943492 119.25954339 73.08203125 109.7578125 C75.5625 108.4375 75.5625 108.4375 80.5625 108.4375 C80.5625 116.3575 80.5625 124.2775 80.5625 132.4375 C80.2325 132.4375 79.9025 132.4375 79.5625 132.4375 C78.5725 122.0425 78.5725 122.0425 77.5625 111.4375 C76.139375 112.324375 74.71625 113.21125 73.25 114.125 C52.4732654 126.45755895 28.26835601 130.35250239 4.5 124.9375 C-8.79972136 121.47419948 -20.76171816 114.98950286 -31.4375 106.4375 C-32.18515625 105.96054688 -32.9328125 105.48359375 -33.703125 104.9921875 C-35.4375 103.4375 -35.4375 103.4375 -35.93359375 101.37109375 C-35.45713026 81.07374895 -30.59627579 62.60222789 -16.4375 47.4375 C-8.97262103 41.27666453 -1.29460539 37.18577825 7.76171875 33.921875 C10.67476228 32.68304476 10.67476228 32.68304476 11.93359375 30.19140625 C13.53097414 23.19666604 13.87360168 15.18741838 10.6875 8.625 C8.92685203 5.41295146 8.92685203 5.41295146 6.5625 4.4375 C3.67879667 4.36555131 0.82010336 4.34458292 -2.0625 4.375 C-3.26519531 4.38176758 -3.26519531 4.38176758 -4.4921875 4.38867188 C-6.47399006 4.40046832 -8.45575433 4.41840395 -10.4375 4.4375 C-7.19223958 0.43051586 -5.09243141 -0.08830806 0 0 Z " fill="#41403B" transform="translate(86.4375,77.5625)"/>
<path d="M0 0 C3.79131068 7.58262137 2.27154316 20.85618662 1 29 C-1.02343547 34.08962296 -4.74407454 37.59686939 -8.55908203 41.40332031 C-15.41981515 49.00569148 -19.42521753 60.31068703 -22 70 C-22.33644531 71.21236328 -22.33644531 71.21236328 -22.6796875 72.44921875 C-26.14205667 87.55558286 -24.86862775 104.39411675 -20 119 C-19.360625 118.01 -18.72125 117.02 -18.0625 116 C-17.381875 115.01 -16.70125 114.02 -16 113 C-15.67 113 -15.34 113 -15 113 C-15.2165625 114.85625 -15.2165625 114.85625 -15.4375 116.75 C-16.07833262 122.49002931 -16.5421622 128.24293318 -17 134 C-28.78159817 119.68398827 -29.31633385 97.59044248 -28 80 C-26.12613353 64.40318478 -19.16655586 44.43511442 -7.44921875 33.56079102 C-2.70023273 28.95243717 -2.26873647 24.99570886 -2.1171875 18.49804688 C-2.11976562 17.36431641 -2.12234375 16.23058594 -2.125 15.0625 C-2.104375 13.90169922 -2.08375 12.74089844 -2.0625 11.54492188 C-2.0156024 8.69589279 -1.99554045 5.84933441 -2 3 C-23.18093513 19.11871494 -35.83224793 38.86845518 -44 64 C-44.66 64 -45.32 64 -46 64 C-45.13483681 46.69673626 -34.24390376 29.63204003 -23 17 C-22.34128906 16.20980469 -21.68257812 15.41960938 -21.00390625 14.60546875 C-7.9779024 -0.7793688 -7.9779024 -0.7793688 0 0 Z " fill="#555553" transform="translate(50,22)"/>
<path d="M0 0 C1.10279297 -0.00773437 2.20558594 -0.01546875 3.34179688 -0.0234375 C24.29725353 0.02601491 46.77621467 7.28723394 62.0625 22.25 C62.0625 22.91 62.0625 23.57 62.0625 24.25 C62.62453125 24.47171875 63.1865625 24.6934375 63.765625 24.921875 C75.91734879 31.94838195 84.12987527 50.57245974 88.0625 63.25 C87.4025 63.25 86.7425 63.25 86.0625 63.25 C85.7325 64.24 85.4025 65.23 85.0625 66.25 C84.77117187 65.43917969 84.47984375 64.62835938 84.1796875 63.79296875 C75.510993 40.37658959 60.87783713 22.71983377 38.515625 11.46484375 C30.88539247 8.01428304 23.29439219 5.74265704 15.0625 4.25 C14.34707031 4.11851563 13.63164063 3.98703125 12.89453125 3.8515625 C1.25195036 2.07516871 -10.37665766 3.71585978 -21.9375 5.25 C-22.2675 4.26 -22.5975 3.27 -22.9375 2.25 C-15.23937727 0.34526511 -7.90978533 -0.05528097 0 0 Z " fill="#413B3B" transform="translate(111.9375,22.75)"/>
<path d="M0 0 C13.9503373 3.15113501 26.08269029 11.02790155 37 20 C37.91265625 20.73605469 38.8253125 21.47210937 39.765625 22.23046875 C55.61008003 35.7435254 66.7600605 54.27447697 73 74 C73 74.99 73 75.98 73 77 C72.01 77 71.02 77 70 77 C69.67128906 76.030625 69.34257812 75.06125 69.00390625 74.0625 C63.90916217 59.51812275 57.12141111 46.69935939 47 35 C46.236875 33.989375 45.47375 32.97875 44.6875 31.9375 C33.54065209 19.753736 18.97433005 11.50594112 4 5 C2.66140747 4.34395713 1.32563513 3.68184582 0 3 C0 2.01 0 1.02 0 0 Z " fill="#413D3D" transform="translate(149,6)"/>
<path d="M0 0 C0 7.92 0 15.84 0 24 C-0.33 24 -0.66 24 -1 24 C-1.99 13.605 -1.99 13.605 -3 3 C-4.423125 3.886875 -5.84625 4.77375 -7.3125 5.6875 C-28.18745882 18.07836243 -52.46454413 21.93795001 -76.3125 16.375 C-83.59839016 14.49146443 -90.34119599 11.47415861 -97 8 C-96.67 7.34 -96.34 6.68 -96 6 C-92.10803445 6.62425586 -88.56796231 7.80581614 -84.87109375 9.12060547 C-61.94785451 17.2319801 -39.47798795 16.56431815 -17 7 C-13.69122164 5.31352414 -10.57086481 3.38057654 -7.48046875 1.3203125 C-5 0 -5 0 0 0 Z " fill="#272521" transform="translate(167,186)"/>
<path d="M0 0 C14.11947583 4.99072059 24.36793222 19.20733845 31 32 C35.12589382 40.65503623 38.00848952 49.61893746 40 59 C42.40383999 50.59072121 42.40383999 50.59072121 44 42 C46.39073445 45.82517513 46.55966552 49.59665524 47 54 C46.34 54 45.68 54 45 54 C44.90203125 54.54527344 44.8040625 55.09054688 44.703125 55.65234375 C43.54000257 61.51809047 41.61460097 66.63118344 39 72 C36.7418149 68.61272235 36.60657312 66.814418 36.1875 62.8125 C33.19230345 40.58859889 23.21360427 20.33927564 5.1640625 6.55859375 C3.46773674 5.33687177 1.73938829 4.15959219 0 3 C0 2.01 0 1.02 0 0 Z " fill="#423F3F" transform="translate(156,82)"/>
<path d="M0 0 C2 2 2 2 2.125 5.1953125 C2.08375 6.49210937 2.0425 7.78890625 2 9.125 C1.88147913 14.76618916 2.24334712 19.62025057 4 25 C5.26070312 25.13921875 5.26070312 25.13921875 6.546875 25.28125 C19.50776865 27.97899257 31.23021935 37.58116393 38.875 48 C46.60342656 59.81240552 46.60342656 59.81240552 45.75 66.0625 C45.5025 67.031875 45.255 68.00125 45 69 C43.72174303 66.48241774 42.50369384 63.94577726 41.30078125 61.390625 C33.68979115 45.39134399 24.04368867 35.72724416 7.3125 29.25 C6.35988281 28.92515625 5.40726563 28.6003125 4.42578125 28.265625 C1.29885843 26.63418701 0.42146649 25.20741158 -1 22 C-2.47448371 14.36039314 -2.14249175 7.43570665 0 0 Z " fill="#3B3737" transform="translate(125,86)"/>
<path d="M0 0 C-1 3 -1 3 -2.71484375 4.0703125 C-3.44832031 4.41835937 -4.18179688 4.76640625 -4.9375 5.125 C-22.06755517 14.27369825 -31.91188747 31.61289736 -37.9375 49.4375 C-38.288125 50.613125 -38.63875 51.78875 -39 53 C-39.66 53 -40.32 53 -41 53 C-40.68638967 35.43782136 -28.87442977 20.16677952 -16.81640625 8.4609375 C-11.75002017 4.03399821 -6.88288379 0 0 0 Z " fill="#2F2D29" transform="translate(75,81)"/>
<path d="M0 0 C0.33 0 0.66 0 1 0 C1.01458252 0.68400879 1.02916504 1.36801758 1.04418945 2.07275391 C1.49948068 22.32985526 1.49948068 22.32985526 6 42 C6.639375 41.01 7.27875 40.02 7.9375 39 C8.618125 38.01 9.29875 37.02 10 36 C10.33 36 10.66 36 11 36 C10.7834375 37.85625 10.7834375 37.85625 10.5625 39.75 C9.92166738 45.49002931 9.4578378 51.24293318 9 57 C-0.62920095 45.29940117 -2.24369874 28.37355267 -2.3125 13.8125 C-2.31805908 12.79559082 -2.32361816 11.77868164 -2.3293457 10.73095703 C-2.25696704 3.38545056 -2.25696704 3.38545056 0 0 Z " fill="#686359" transform="translate(24,99)"/>
<path d="M0 0 C-4.79765095 16.20699001 -20.83568595 33.43069402 -34.64453125 42.79296875 C-37.55258448 44.28316518 -38.9415575 43.96122479 -42 43 C-42 39.7 -42 36.4 -42 33 C-41.01 33 -40.02 33 -39 33 C-38.67 35.31 -38.34 37.62 -38 40 C-23.939269 29.88546871 -13.63940022 18.44351386 -5.375 3.265625 C-3.77709643 0.63271571 -3.07830096 0 0 0 Z " fill="#444141" transform="translate(215,163)"/>
<path d="M0 0 C0.33 0 0.66 0 1 0 C1.08694042 4.10403363 1.14037149 8.20783129 1.1875 12.3125 C1.21263672 13.47974609 1.23777344 14.64699219 1.26367188 15.84960938 C1.27333984 16.96787109 1.28300781 18.08613281 1.29296875 19.23828125 C1.3086792 20.26993408 1.32438965 21.30158691 1.34057617 22.36450195 C1 25 1 25 -0.37597656 26.78222656 C-18.57122561 40.42592804 -44.47809634 40.52996227 -66 40 C-66 39.67 -66 39.34 -66 39 C-65.13048706 38.970271 -65.13048706 38.970271 -64.2434082 38.93994141 C-61.59934063 38.84427399 -58.9560183 38.73476547 -56.3125 38.625 C-54.94448242 38.57859375 -54.94448242 38.57859375 -53.54882812 38.53125 C-48.89566329 38.32820281 -45.27931225 37.953122 -41 36 C-38.71603132 35.52394388 -36.42302459 35.09027205 -34.125 34.6875 C-26.12240792 33.19532315 -18.66812622 30.71414777 -11 28 C-9.18894824 27.39150585 -7.37669627 26.78655385 -5.5625 26.1875 C-3.7990625 25.5996875 -3.7990625 25.5996875 -2 25 C-2 22.03 -2 19.06 -2 16 C-1.67 16 -1.34 16 -1 16 C-0.67 10.72 -0.34 5.44 0 0 Z " fill="#3E3C38" transform="translate(167,187)"/>
<path d="M0 0 C0 3.64424879 -0.61554865 3.96162409 -3.0625 6.5 C-14.21096713 18.83733787 -20.8485548 34.37948874 -26 50 C-26.66 50 -27.32 50 -28 50 C-27.23298367 34.65967338 -17.67371655 16.11628528 -7 5 C-4.1875 3.0625 -4.1875 3.0625 -2 2 C-1.34 1.34 -0.68 0.68 0 0 Z " fill="#3B3934" transform="translate(32,36)"/>
<path d="M0 0 C0.33 0.99 0.66 1.98 1 3 C-0.27834107 5.23183311 -1.59472353 7.27401465 -3.0625 9.375 C-11.23567213 21.6657232 -15.25469948 33.61139552 -18 48 C-19.5 46.703125 -19.5 46.703125 -21 45 C-21 30.06082628 -12.08634184 13.3579273 -3 2 C-2.01 1.34 -1.02 0.68 0 0 Z " fill="#393733" transform="translate(44,55)"/>
<path d="M0 0 C2.5 2.125 2.5 2.125 4 5 C4 9.86558144 2.34509374 12.55933215 -1 16 C-4.25704603 18.27993222 -7.08347719 18.40797113 -11 18 C-13.375 16.9375 -13.375 16.9375 -15 15 C-15.49143078 11.20896252 -15.33084364 8.76616421 -13.8125 5.25 C-9.9420952 0.44535956 -6.12550155 -0.89098204 0 0 Z M-12 8 C-13.13306157 10.01633305 -13.13306157 10.01633305 -13 12 C-12.01 13.485 -12.01 13.485 -11 15 C-8.1284035 15.66790364 -8.1284035 15.66790364 -5 15 C-1.96896031 12.64252468 -0.33171607 10.9509194 0.9375 7.3125 C0.958125 6.549375 0.97875 5.78625 1 5 C-0.80739337 2.81984552 -0.80739337 2.81984552 -3.25 2.5625 C-7.26551638 3.20133215 -9.16936003 5.16936003 -12 8 Z " fill="#302D27" transform="translate(86,89)"/>
<path d="M0 0 C4.32628296 2.2903851 7.01824692 4.48600688 9 9 C9.56751276 12.3240033 9.33377715 13.50600981 7.4375 16.3125 C4.07956857 18.63722176 2.01071826 18.49254435 -2 18 C-4.875 16.6875 -4.875 16.6875 -7 15 C-7.33 14.01 -7.66 13.02 -8 12 C-7.34 11.34 -6.68 10.68 -6 10 C-4.9171875 10.99 -4.9171875 10.99 -3.8125 12 C-0.78402067 14.1535853 0.39703406 14.41176754 4 14 C4.95020416 11.760165 4.95020416 11.760165 5 9 C3.04273417 6.0424351 3.04273417 6.0424351 0 4 C-3.21061788 3.58109782 -3.21061788 3.58109782 -6 4 C-6.33 5.65 -6.66 7.3 -7 9 C-7.99 7.68 -8.98 6.36 -10 5 C-7.69710315 -0.09927161 -5.55935566 -0.53455343 0 0 Z " fill="#282626" transform="translate(147,89)"/>
<path d="M0 0 C1.11246094 0.00128906 2.22492188 0.00257812 3.37109375 0.00390625 C8.34632983 0.67985632 10.78937029 2.42813622 13.8125 6.375 C16.61872434 11.2858926 16.67734299 15.03445704 16.625 20.6875 C16.61597656 21.95078125 16.60695313 23.2140625 16.59765625 24.515625 C16.58605469 25.47984375 16.57445313 26.4440625 16.5625 27.4375 C13.55275019 24.0924248 13.05305648 21.42011832 12.5625 17 C12.04847456 12.37912547 11.31809779 9.23333595 8.5625 5.4375 C5.25255287 3.78252644 1.57127 4.33665665 -2.0625 4.375 C-3.26519531 4.38176758 -3.26519531 4.38176758 -4.4921875 4.38867188 C-6.47399006 4.40046832 -8.45575433 4.41840395 -10.4375 4.4375 C-7.19223958 0.43051586 -5.09243141 -0.08830806 0 0 Z " fill="#474540" transform="translate(86.4375,77.5625)"/>
<path d="M0 0 C2.39073445 3.82517513 2.55966552 7.59665524 3 12 C2.34 12 1.68 12 1 12 C0.90203125 12.54527344 0.8040625 13.09054688 0.703125 13.65234375 C-0.45999743 19.51809047 -2.38539903 24.63118344 -5 30 C-7.40119059 26.39821412 -7.43771322 23.49133631 -7.625 19.3125 C-7.66367188 18.61060547 -7.70234375 17.90871094 -7.7421875 17.18554688 C-7.8362334 15.45745345 -7.9191968 13.72876325 -8 12 C-7.01 12.33 -6.02 12.66 -5 13 C-4.3125 15.0625 -4.3125 15.0625 -4 17 C-1.59616001 8.59072121 -1.59616001 8.59072121 0 0 Z " fill="#191010" transform="translate(200,124)"/>
<path d="M0 0 C10.13298512 2.14695672 20.48888322 2.17969159 30.80859375 2.515625 C30.47859375 3.175625 30.14859375 3.835625 29.80859375 4.515625 C14.60820943 4.95246593 0.40725398 5.12789565 -14.19140625 0.515625 C-9.38696819 -2.22976817 -5.18824239 -1.14677728 0 0 Z " fill="#23201A" transform="translate(91.19140625,221.484375)"/>
<path d="M0 0 C1.13630859 -0.00773437 2.27261719 -0.01546875 3.44335938 -0.0234375 C9.28337949 -0.00981646 14.30893593 0.24291151 19.8125 2.25 C19.8125 2.58 19.8125 2.91 19.8125 3.25 C18.81005249 3.23428955 18.81005249 3.23428955 17.78735352 3.21826172 C4.29831086 3.03543005 -8.8401412 3.19373565 -22.1875 5.25 C-22.5175 4.26 -22.8475 3.27 -23.1875 2.25 C-15.41141258 0.31616492 -7.99095271 -0.05495211 0 0 Z " fill="#161414" transform="translate(112.1875,22.75)"/>
<path d="M0 0 C15.5081432 -0.4370771 30.08797946 0.51664742 45 5 C44.34 5.66 43.68 6.32 43 7 C38.00743288 6.6778989 33.17377952 5.86198793 28.25 5 C21.85884157 3.89637213 15.46904918 3.39649011 9 3 C9 2.67 9 2.34 9 2 C6.03 1.67 3.06 1.34 0 1 C0 0.67 0 0.34 0 0 Z " fill="#5A5757" transform="translate(103,0)"/>
<path d="M0 0 C0.33 0 0.66 0 1 0 C0.67 13.53 0.34 27.06 0 41 C-0.33 41 -0.66 41 -1 41 C-1.66 34.4 -2.32 27.8 -3 21 C-3.33 21 -3.66 21 -4 21 C-4.27863374 13.44592983 -4.33215338 6.49823007 0 0 Z " fill="#C0A848" transform="translate(4,87)"/>
<path d="M0 0 C0.33 0 0.66 0 1 0 C1.85491828 4.43844366 2.12866713 8.63897731 2.1328125 13.15625 C2.13376923 13.82160767 2.13472595 14.48696533 2.13571167 15.17248535 C2.13638827 16.57088313 2.13457047 17.96928414 2.13037109 19.36767578 C2.1250154 21.49388766 2.13033375 23.61988834 2.13671875 25.74609375 C2.13605788 27.11197963 2.13477652 28.47786537 2.1328125 29.84375 C2.13168457 31.07287109 2.13055664 32.30199219 2.12939453 33.56835938 C2.00747921 36.80164564 1.6112654 39.82651888 1 43 C-1.53904895 39.19142657 -1.2708636 36.12861043 -1.23046875 31.71875 C-1.23001053 30.9088562 -1.22955231 30.0989624 -1.2290802 29.26452637 C-1.22606079 27.55312636 -1.21818375 25.84172903 -1.20581055 24.13037109 C-1.18756956 21.50999215 -1.18530082 18.88996703 -1.18554688 16.26953125 C-1.18063083 14.60676778 -1.17480214 12.9440067 -1.16796875 11.28125 C-1.16685593 10.49681519 -1.1657431 9.71238037 -1.16459656 8.9041748 C-1.13645054 5.67984483 -1.02679723 3.0803917 0 0 Z " fill="#120C0C" transform="translate(224,92)"/>
<path d="M0 0 C0.33 0 0.66 0 1 0 C1.0501123 0.6391333 1.10022461 1.2782666 1.15185547 1.93676758 C1.38717194 4.89583218 1.63104869 7.85413523 1.875 10.8125 C1.95363281 11.81732422 2.03226562 12.82214844 2.11328125 13.85742188 C2.68253746 20.66660188 3.65221328 27.3015827 5 34 C4.34 34 3.68 34 3 34 C2.67 34.99 2.34 35.98 2 37 C-1.04778251 25.18984276 -2.08896752 13.18653656 -1 1 C-0.67 0.67 -0.34 0.34 0 0 Z " fill="#3E3D3B" transform="translate(1,107)"/>
<path d="M0 0 C1.77734375 0.09375 1.77734375 0.09375 4 1 C5.39113419 3.17794771 6.48760414 5.17381356 7.5625 7.5 C7.86551025 8.13204346 8.16852051 8.76408691 8.48071289 9.4152832 C14 21.14246131 14 21.14246131 14 27 C13.01 27 12.02 27 11 27 C10.62488281 25.94941406 10.24976563 24.89882812 9.86328125 23.81640625 C7.31217699 16.78286273 4.81550592 10.00764801 0.8828125 3.6015625 C0 2 0 2 0 0 Z " fill="#423C3C" transform="translate(208,56)"/>
<path d="M0 0 C2 2 2 2 2.125 5.1953125 C2.08375 6.49210937 2.0425 7.78890625 2 9.125 C1.88147913 14.76618916 2.24334712 19.62025057 4 25 C4.99 25 5.98 25 7 25 C7 25.99 7 26.98 7 28 C4.6875 27.8125 4.6875 27.8125 2 27 C-2.46092615 21.04132329 -2.59508716 13.33818539 -1.609375 6.15234375 C-1.15022347 4.08288219 -0.58690823 2.03691679 0 0 Z " fill="#423D3D" transform="translate(125,86)"/>
<path d="M0 0 C0.33 0 0.66 0 1 0 C1 10.23 1 20.46 1 31 C-3.38810055 26.61189945 -2.18396809 20.29939474 -2.1875 14.5 C-2.19974609 13.44167969 -2.21199219 12.38335937 -2.22460938 11.29296875 C-2.22750977 9.77123047 -2.22750977 9.77123047 -2.23046875 8.21875 C-2.23457764 7.28998047 -2.23868652 6.36121094 -2.24291992 5.40429688 C-2 3 -2 3 0 0 Z " fill="#322E27" transform="translate(24,99)"/>
<path d="M0 0 C0.33 0 0.66 0 1 0 C0.9175 1.299375 0.835 2.59875 0.75 3.9375 C1.12559956 7.65828316 1.81814895 8.82535646 4.5625 11.4609375 C7.65144406 13.73979084 10.80221153 15.87760994 14 18 C15.68097458 19.31524903 17.35285193 20.64262798 19 22 C17.375 22.73046875 17.375 22.73046875 15 23 C12.125 21.48828125 12.125 21.48828125 9 19.3125 C7.453125 18.25482422 7.453125 18.25482422 5.875 17.17578125 C0.79570966 13.33180745 0.79570966 13.33180745 -1 11 C-1.171875 8.203125 -1.171875 8.203125 -0.75 5.25 C-0.62109375 4.26515625 -0.4921875 3.2803125 -0.359375 2.265625 C-0.18148437 1.14414063 -0.18148437 1.14414063 0 0 Z " fill="#494846" transform="translate(53,170)"/>
<path d="M0 0 C1.27865038 3.83595115 0.45186114 6.72920076 -0.375 10.5625 C-0.51421875 11.24763672 -0.6534375 11.93277344 -0.796875 12.63867188 C-1.84977679 17.69955357 -1.84977679 17.69955357 -3 20 C-3.27024708 22.29924497 -3.44497841 24.59801487 -3.62109375 26.90625 C-4 29 -4 29 -6 31 C-6.41528981 24.01697883 -5.77294197 17.32363723 -4.6875 10.4375 C-4.56979248 9.63973145 -4.45208496 8.84196289 -4.33081055 8.02001953 C-3.99069259 5.99323856 -3.50479166 3.99216131 -3 2 C-2.01 1.34 -1.02 0.68 0 0 Z " fill="#2F2C25" transform="translate(57,150)"/>
<path d="M0 0 C0.33 0 0.66 0 1 0 C1.33 7.59 1.66 15.18 2 23 C3.32 22.34 4.64 21.68 6 21 C6.66 21.66 7.32 22.32 8 23 C4.86890758 25.78319327 3.12722261 26.16426757 -1 26 C-1.02886751 21.85418113 -1.04675327 17.70838784 -1.0625 13.5625 C-1.07087891 12.37849609 -1.07925781 11.19449219 -1.08789062 9.97460938 C-1.09111328 8.84990234 -1.09433594 7.72519531 -1.09765625 6.56640625 C-1.10289307 5.52427979 -1.10812988 4.48215332 -1.11352539 3.40844727 C-1 1 -1 1 0 0 Z " fill="#060606" transform="translate(57,17)"/>
<path d="M0 0 C-2.4178779 2.87423233 -4.52398029 3.64387252 -8.125 4.5625 C-10.75347331 5.19912622 -10.75347331 5.19912622 -13 6 C-13.33 6.66 -13.66 7.32 -14 8 C-14.86625 7.62875 -14.86625 7.62875 -15.75 7.25 C-16.4925 7.1675 -17.235 7.085 -18 7 C-20.27144074 8.85432087 -20.27144074 8.85432087 -22 11 C-22.33 9.68 -22.66 8.36 -23 7 C-20.79296628 6.03857983 -18.58446467 5.08080463 -16.375 4.125 C-15.75753906 3.85558594 -15.14007813 3.58617187 -14.50390625 3.30859375 C-3.85794151 -1.2859805 -3.85794151 -1.2859805 0 0 Z " fill="#453030" transform="translate(84,5)"/>
<path d="M0 0 C0.33 0 0.66 0 1 0 C1.35430394 3.18873549 1.25953249 4.61589191 -0.5625 7.3125 C-3.92043143 9.63722176 -5.98928174 9.49254435 -10 9 C-12.875 7.6875 -12.875 7.6875 -15 6 C-15.33 5.01 -15.66 4.02 -16 3 C-15.34 2.34 -14.68 1.68 -14 1 C-12.9171875 1.99 -12.9171875 1.99 -11.8125 3 C-8.74188423 5.18354899 -7.64996808 5.48025896 -4 5 C-3.01 4.67 -2.02 4.34 -1 4 C-0.26676204 1.98491642 -0.26676204 1.98491642 0 0 Z " fill="#221313" transform="translate(155,98)"/>
<path d="M0 0 C2.2344598 4.03292745 2.54496743 7.44967434 3 12 C2.34 12 1.68 12 1 12 C0.67 13.98 0.34 15.96 0 18 C-0.66 18 -1.32 18 -2 18 C-3.62514468 19.45833358 -3.62514468 19.45833358 -5 21 C-4.80664062 20.40574219 -4.61328125 19.81148437 -4.4140625 19.19921875 C-2.42266784 12.86027437 -1.05948769 6.55635914 0 0 Z " fill="#5F4141" transform="translate(200,124)"/>
<path d="M0 0 C1.85546875 0.6328125 1.85546875 0.6328125 4 2 C5.30078125 4.6796875 5.30078125 4.6796875 6.3125 7.875 C6.65925781 8.92429687 7.00601563 9.97359375 7.36328125 11.0546875 C7.98057045 13.91012344 8.00742571 15.30919844 7 18 C6.34 18 5.68 18 5 18 C4.16320723 15.37605694 3.33043058 12.75095616 2.5 10.125 C2.26152344 9.37863281 2.02304688 8.63226563 1.77734375 7.86328125 C0 2.2265625 0 2.2265625 0 0 Z " fill="#3F3737" transform="translate(186,119)"/>
<path d="M0 0 C-0.33 0.99 -0.66 1.98 -1 3 C-7.48349807 4.18135474 -13.86214507 4.11322974 -20.4375 4.0625 C-21.55060547 4.05798828 -22.66371094 4.05347656 -23.81054688 4.04882812 C-26.54042101 4.03711193 -29.27018174 4.02070699 -32 4 C-32 3.67 -32 3.34 -32 3 C-31.42032471 2.98018066 -30.84064941 2.96036133 -30.2434082 2.93994141 C-27.59934063 2.84427399 -24.9560183 2.73476547 -22.3125 2.625 C-20.94448242 2.57859375 -20.94448242 2.57859375 -19.54882812 2.53125 C-12.66948718 2.23106058 -6.85581638 -0.26885554 0 0 Z " fill="#656462" transform="translate(133,223)"/>
<path d="M0 0 C-1 3 -1 3 -2.8203125 4.17578125 C-3.58085938 4.55089844 -4.34140625 4.92601563 -5.125 5.3125 C-9.69018637 7.70830981 -13.20237112 10.52557358 -17 14 C-17.66 13.67 -18.32 13.34 -19 13 C-8.30555556 0 -8.30555556 0 0 0 Z " fill="#383732" transform="translate(75,81)"/>
<path d="M0 0 C0.99 0.33 1.98 0.66 3 1 C2.45018084 7.04801071 1.09570426 12.30601106 -1 18 C-1.99 17.67 -2.98 17.34 -4 17 C-2.68 11.39 -1.36 5.78 0 0 Z " fill="#352D2D" transform="translate(221,135)"/>
<path d="M0 0 C0.66 0.33 1.32 0.66 2 1 C1.13375 1.99 0.2675 2.98 -0.625 4 C-2.94010756 6.67463014 -5.02720407 9.42079383 -7.0625 12.3125 C-9.35575328 15.44076371 -11.09629393 17.08148092 -15 18 C-13.52357373 12.77345099 -10.17768064 9.83173561 -6.375 6.1875 C-5.76398437 5.59001953 -5.15296875 4.99253906 -4.5234375 4.37695312 C-3.02235161 2.91104894 -1.51207138 1.45457007 0 0 Z " fill="#51504D" transform="translate(61,87)"/>
<path d="M0 0 C1.16015625 0.04640625 2.3203125 0.0928125 3.515625 0.140625 C4.68609375 0.17671875 5.8565625 0.2128125 7.0625 0.25 C7.95453125 0.29640625 8.8465625 0.3428125 9.765625 0.390625 C10.095625 1.380625 10.425625 2.370625 10.765625 3.390625 C4.825625 3.720625 -1.114375 4.050625 -7.234375 4.390625 C-3.234375 0.390625 -3.234375 0.390625 0 0 Z " fill="#625F58" transform="translate(83.234375,77.609375)"/>
<path d="M0 0 C0 7.92 0 15.84 0 24 C-0.33 24 -0.66 24 -1 24 C-1.66 17.07 -2.32 10.14 -3 3 C-3.99 3 -4.98 3 -6 3 C-3.375 0 -3.375 0 0 0 Z " fill="#080705" transform="translate(167,186)"/>
<path d="M0 0 C0.66 0.33 1.32 0.66 2 1 C1.27683594 1.68835938 1.27683594 1.68835938 0.5390625 2.390625 C-0.09257813 3.00421875 -0.72421875 3.6178125 -1.375 4.25 C-2.00148438 4.85328125 -2.62796875 5.4565625 -3.2734375 6.078125 C-4.9804599 7.97824949 -5.87883977 9.72917547 -7 12 C-9.86679519 13.96149145 -12.89645703 15.4548318 -16 17 C-11.52140401 10.31851737 -6.0989888 5.20704182 0 0 Z " fill="#6A6863" transform="translate(42,24)"/>
<path d="M0 0 C0.33 0 0.66 0 1 0 C0.855625 1.2375 0.71125 2.475 0.5625 3.75 C-0.07833262 9.49002931 -0.5421622 15.24293318 -1 21 C-3.41445371 17.97060499 -4.46292236 15.86695903 -5 12 C-4.34 12 -3.68 12 -3 12 C-2.80083984 10.82630859 -2.80083984 10.82630859 -2.59765625 9.62890625 C-2.42105469 8.61699219 -2.24445312 7.60507813 -2.0625 6.5625 C-1.88847656 5.55316406 -1.71445312 4.54382813 -1.53515625 3.50390625 C-1 1 -1 1 0 0 Z " fill="#0D0A03" transform="translate(34,135)"/>
<path d="M0 0 C0.33 0 0.66 0 1 0 C1.10853983 2.22808159 1.18583307 4.45769932 1.25 6.6875 C1.29640625 7.92886719 1.3428125 9.17023438 1.390625 10.44921875 C0.93722623 14.5706136 -0.00461821 16.18240166 -3 19 C-3.99 19 -4.98 19 -6 19 C-6.33 18.01 -6.66 17.02 -7 16 C-6.01 15.67 -5.02 15.34 -4 15 C-3.00689908 13.10977934 -3.00689908 13.10977934 -2.375 10.8125 C-2.12878906 10.00554687 -1.88257812 9.19859375 -1.62890625 8.3671875 C-0.89292277 5.59696396 -0.36446691 2.84284193 0 0 Z " fill="#4C4A46" transform="translate(101,95)"/>
<path d="M0 0 C0.33 0 0.66 0 1 0 C1.08694042 4.10403363 1.14037149 8.20783129 1.1875 12.3125 C1.22520508 14.06336914 1.22520508 14.06336914 1.26367188 15.84960938 C1.27333984 16.96787109 1.28300781 18.08613281 1.29296875 19.23828125 C1.3086792 20.26993408 1.32438965 21.30158691 1.34057617 22.36450195 C1 25 1 25 -0.39331055 26.86010742 C-2 28 -2 28 -4 28 C-3.34 24.04 -2.68 20.08 -2 16 C-1.67 16 -1.34 16 -1 16 C-0.67 10.72 -0.34 5.44 0 0 Z " fill="#77746D" transform="translate(167,187)"/>
<path d="M0 0 C0.33 0 0.66 0 1 0 C1.0271045 3.04172719 1.04688964 6.08320997 1.0625 9.125 C1.07087891 9.9809375 1.07925781 10.836875 1.08789062 11.71875 C1.10538306 16.26678411 0.93192358 20.52383164 0 25 C-0.66 24.67 -1.32 24.34 -2 24 C-1.85790331 21.3122562 -1.7114277 18.62486698 -1.5625 15.9375 C-1.52318359 15.18533203 -1.48386719 14.43316406 -1.44335938 13.65820312 C-1.18419281 9.05301259 -0.7200579 4.55633276 0 0 Z " fill="#110606" transform="translate(203,104)"/>
<path d="M0 0 C0.66 0 1.32 0 2 0 C1.86722656 0.72445312 1.73445313 1.44890625 1.59765625 2.1953125 C0.69718291 7.12491105 -0.19781966 12.05322123 -1 17 C-2.5625 16 -2.5625 16 -4 14 C-3.77623935 9.37561323 -3.48327361 3.48327361 0 0 Z " fill="#514E47" transform="translate(27,86)"/>
<path d="M0 0 C0.33 0 0.66 0 1 0 C0.58955515 6.57791873 0.13391403 12.74051886 -2 19 C-2.33 19 -2.66 19 -3 19 C-3.0814222 16.77144426 -3.13938079 14.54202345 -3.1875 12.3125 C-3.22230469 11.07113281 -3.25710937 9.82976562 -3.29296875 8.55078125 C-2.9842473 4.80907731 -2.24853724 2.96217879 0 0 Z " fill="#27231B" transform="translate(4,87)"/>
<path d="M0 0 C8.35740901 -0.32098157 15.22270481 -0.21819111 23 3 C22.34 3.66 21.68 4.32 21 5 C17.46782421 4.67889311 14.36550494 4.12183498 11 3 C11 2.34 11 1.68 11 1 C7.37 1 3.74 1 0 1 C0 0.67 0 0.34 0 0 Z " fill="#5E5B5B" transform="translate(133,78)"/>
<path d="M0 0 C0.99 0.33 1.98 0.66 3 1 C5.04367839 7.13103517 4.06808374 13.72500803 3 20 C2.67 20 2.34 20 2 20 C1.34 13.4 0.68 6.8 0 0 Z " fill="#595858" transform="translate(170,155)"/>
<path d="M0 0 C0 0.99 0 1.98 0 3 C-1.4096347 3.70180531 -2.82807641 4.38593958 -4.25 5.0625 C-5.03890625 5.44535156 -5.8278125 5.82820313 -6.640625 6.22265625 C-9.25993522 7.08564091 -10.44855176 6.93045933 -13 6 C-9.79001231 2.03472109 -5.0381893 0 0 0 Z " fill="#3B3935" transform="translate(95,112)"/>
<path d="M0 0 C0.33 0 0.66 0 1 0 C1.33 6.27 1.66 12.54 2 19 C1.01 18.34 0.02 17.68 -1 17 C-1.24849576 14.22808898 -1.32683409 11.70112612 -1.25 8.9375 C-1.24484375 8.19177734 -1.2396875 7.44605469 -1.234375 6.67773438 C-1.15410426 1.15410426 -1.15410426 1.15410426 0 0 Z " fill="#0D0C09" transform="translate(1,107)"/>
<path d="M0 0 C2 3 2 3 3 5 C5.32156597 5.40729228 7.6568787 5.74438677 10 6 C9.67 6.99 9.34 7.98 9 9 C5.74704886 9.22179212 3.57202207 9.28601103 0.625 7.8125 C-1 6 -1 6 -1.3125 3.375 C-1 1 -1 1 0 0 Z " fill="#2C2B28" transform="translate(72,98)"/>
<path d="M0 0 C0 3.73869249 -0.90485692 4.36550705 -3.375 7.0625 C-4.31472656 8.10083984 -4.31472656 8.10083984 -5.2734375 9.16015625 C-8.8208033 12.94026777 -8.8208033 12.94026777 -12 14 C-9.8367158 8.00936682 -7.5501606 5.13085983 -2 2 C-1.34 1.34 -0.68 0.68 0 0 Z " fill="#312F2B" transform="translate(32,36)"/>
<path d="M0 0 C4.60853797 0.72008406 8.67237409 2.31295939 13 4 C12.01 4.495 12.01 4.495 11 5 C11 5.66 11 6.32 11 7 C6.76570244 5.68938409 2.92592596 4.05643741 -1 2 C-0.67 1.34 -0.34 0.68 0 0 Z " fill="#3E3C39" transform="translate(71,192)"/>
<path d="M0 0 C0.66 0.33 1.32 0.66 2 1 C-1.08672897 5.63009345 -4.75495732 8.25165244 -10 10 C-10.66 9.67 -11.32 9.34 -12 9 C-8.63378119 5.21300384 -4.58358196 2.1727369 0 0 Z " fill="#393836" transform="translate(162,186)"/>
<path d="M0 0 C1.89492187 0.15275391 1.89492187 0.15275391 3.828125 0.30859375 C4.79234375 0.39238281 5.7565625 0.47617187 6.75 0.5625 C6.75 0.8925 6.75 1.2225 6.75 1.5625 C1.14 2.2225 -4.47 2.8825 -10.25 3.5625 C-10.58 2.5725 -10.91 1.5825 -11.25 0.5625 C-7.43483536 -0.73812431 -3.97438237 -0.33119853 0 0 Z " fill="#514949" transform="translate(100.25,24.4375)"/>
<path d="M0 0 C-0.33 0.99 -0.66 1.98 -1 3 C-5.455 3.495 -5.455 3.495 -10 4 C-10 3.34 -10 2.68 -10 2 C-11.98 2.99 -11.98 2.99 -14 4 C-14.99 3.34 -15.98 2.68 -17 2 C-11.23918159 0.7017874 -5.91260345 -0.25706972 0 0 Z " fill="#4B4646" transform="translate(102,1)"/>
<path d="M0 0 C0.99 0.33 1.98 0.66 3 1 C3.11381955 7.76594019 2.88021369 14.28837062 2 21 C1.67 21 1.34 21 1 21 C0.67 14.07 0.34 7.14 0 0 Z " fill="#666666" transform="translate(200,99)"/>
<path d="M0 0 C5.52677733 -0.19392201 9.75614911 0.2520497 15 2 C13 4 13 4 10.9765625 4.046875 C10.20054687 3.94890625 9.42453125 3.8509375 8.625 3.75 C7.85414063 3.66234375 7.08328125 3.5746875 6.2890625 3.484375 C3.9213207 2.98335114 2.10648302 2.17347456 0 1 C0 0.67 0 0.34 0 0 Z " fill="#383333" transform="translate(133,3)"/>
<path d="M0 0 C0.99 0 1.98 0 3 0 C3.33 2.31 3.66 4.62 4 7 C4.66 7 5.32 7 6 7 C5.67 8.32 5.34 9.64 5 11 C3.35 10.67 1.7 10.34 0 10 C0 6.7 0 3.4 0 0 Z " fill="#433131" transform="translate(173,196)"/>
<path d="M0 0 C-1.41519715 2.0343459 -2.54982123 2.90410393 -4.98046875 3.421875 C-6.98176954 3.66273952 -8.9909944 3.83532741 -11 4 C-11 3.34 -11 2.68 -11 2 C-12.98 2 -14.96 2 -17 2 C-17 1.67 -17 1.34 -17 1 C-14.73052303 0.63724344 -12.45935265 0.28506814 -10.1875 -0.0625 C-8.92292969 -0.25972656 -7.65835938 -0.45695313 -6.35546875 -0.66015625 C-3 -1 -3 -1 0 0 Z " fill="#5F5D59" transform="translate(135,200)"/>
<path d="M0 0 C2 1 2 1 3 3 C2.21625 3.598125 1.4325 4.19625 0.625 4.8125 C-2.14574323 6.91085249 -2.14574323 6.91085249 -4 10 C-4.66 9.67 -5.32 9.34 -6 9 C-4.83857315 4.64464931 -3.92300495 2.35380297 0 0 Z " fill="#4D4B46" transform="translate(77,90)"/>
<path d="M0 0 C0 4.07605096 -1.55272534 6.7838181 -4 10 C-6.25 10.9375 -6.25 10.9375 -8 11 C-6.66629231 7.40924853 -5.19012918 4.15378602 -3 1 C-2.01 0.67 -1.02 0.34 0 0 Z " fill="#454441" transform="translate(22,48)"/>
<path d="M0 0 C0 0.99 0 1.98 0 3 C-4.37934119 2.48041715 -8.68803391 1.94324258 -13 1 C-9.08906687 -3.42105484 -5.00524738 -1.48660125 0 0 Z " fill="#544B4B" transform="translate(140,26)"/>
<path d="M0 0 C3.8063457 0.67170806 7.35206816 1.72746564 11 3 C11 3.66 11 4.32 11 5 C9.54052295 4.93993922 8.08220728 4.8511311 6.625 4.75 C5.81289062 4.70359375 5.00078125 4.6571875 4.1640625 4.609375 C2 4 2 4 0.7109375 1.953125 C0.47632812 1.30859375 0.24171875 0.6640625 0 0 Z " fill="#23221D" transform="translate(70,216)"/>
<path d="M0 0 C0.886875 0.639375 1.77375 1.27875 2.6875 1.9375 C5.69211428 3.80829757 7.5510371 4.59423966 11 5 C8.58978936 6.51754003 7.31664378 7.02316906 4.4375 6.8125 C1.85081159 5.95027053 0.71664683 5.07804617 -1 3 C-0.67 2.01 -0.34 1.02 0 0 Z " fill="#514C4C" transform="translate(140,99)"/>
<path d="M0 0 C0.99 0.33 1.98 0.66 3 1 C3 5.62 3 10.24 3 15 C-0.15353333 10.7952889 -0.36246719 10.14908143 -0.1875 5.25 C-0.16042969 4.26515625 -0.13335937 3.2803125 -0.10546875 2.265625 C-0.07066406 1.51796875 -0.03585938 0.7703125 0 0 Z " fill="#5F5D57" transform="translate(100,90)"/>
<path d="M0 0 C1 3 1 3 0.328125 4.7890625 C-0.02765625 5.39492188 -0.3834375 6.00078125 -0.75 6.625 C-1.09546875 7.23601562 -1.4409375 7.84703125 -1.796875 8.4765625 C-3 10 -3 10 -6 11 C-5.44509362 7.67056175 -4.79000672 4.88389972 -3 2 C-2.01 1.34 -1.02 0.68 0 0 Z " fill="#2A2927" transform="translate(16,57)"/>
<path d="M0 0 C-1.41519715 2.0343459 -2.54982123 2.90410393 -4.98046875 3.421875 C-6.98176954 3.66273952 -8.9909944 3.83532741 -11 4 C-7.39987093 0.15158617 -5.25169925 -1.6298377 0 0 Z " fill="#33322D" transform="translate(143,198)"/>
<path d="M0 0 C0.66 0 1.32 0 2 0 C2.99 3.3 3.98 6.6 5 10 C3.68 9.67 2.36 9.34 1 9 C0.67 6.03 0.34 3.06 0 0 Z " fill="#292722" transform="translate(4,141)"/>
<path d="M0 0 C0.33 0.66 0.66 1.32 1 2 C1.66 2.33 2.32 2.66 3 3 C-0.44615385 7.8 -0.44615385 7.8 -3.25 8.8125 C-3.8275 8.874375 -4.405 8.93625 -5 9 C-4.42906864 5.6885981 -3.45395174 4.24945577 -1 2 C-0.67 1.34 -0.34 0.68 0 0 Z " fill="#403E3B" transform="translate(86,97)"/>
<path d="M0 0 C1.8125 0.1875 1.8125 0.1875 4 1 C6.14197494 3.90696599 7 5.35521088 7 9 C6.01 9 5.02 9 4 9 C0 2.25 0 2.25 0 0 Z " fill="#322E2E" transform="translate(208,56)"/>
<path d="M0 0 C0.8125 1.6875 0.8125 1.6875 1 4 C-1.4375 6.75 -1.4375 6.75 -4 9 C-4.8125 7.3125 -4.8125 7.3125 -5 5 C-2.5625 2.25 -2.5625 2.25 0 0 Z " fill="#3C3636" transform="translate(205,176)"/>
<path d="M0 0 C0.66 0.99 1.32 1.98 2 3 C2.66 2.67 3.32 2.34 4 2 C3.67 4.31 3.34 6.62 3 9 C2.01 9 1.02 9 0 9 C-1.125 3.375 -1.125 3.375 0 0 Z " fill="#676562" transform="translate(28,138)"/>
<path d="M0 0 C0.99 0 1.98 0 3 0 C3.66 2.97 4.32 5.94 5 9 C4.01 9 3.02 9 2 9 C1.34 6.03 0.68 3.06 0 0 Z " fill="#3A3636" transform="translate(217,74)"/>
<path d="M0 0 C1.32 0 2.64 0 4 0 C4 0.66 4 1.32 4 2 C2.13671875 3.7265625 2.13671875 3.7265625 -0.3125 5.625 C-1.11300781 6.25664062 -1.91351563 6.88828125 -2.73828125 7.5390625 C-5 9 -5 9 -8 9 C-7.50628906 8.51789062 -7.01257812 8.03578125 -6.50390625 7.5390625 C-5.86324219 6.90742188 -5.22257812 6.27578125 -4.5625 5.625 C-3.92441406 4.99851562 -3.28632812 4.37203125 -2.62890625 3.7265625 C-0.92117824 2.08276939 -0.92117824 2.08276939 0 0 Z " fill="#15120B" transform="translate(44,23)"/>
<path d="M0 0 C0.66 0.33 1.32 0.66 2 1 C0.9171875 1.61875 0.9171875 1.61875 -0.1875 2.25 C-2.97969862 3.98736803 -5.47012585 5.90381857 -8 8 C-8.33 6.68 -8.66 5.36 -9 4 C-7.54618103 3.30300448 -6.08677047 2.61766134 -4.625 1.9375 C-3.40683594 1.36322266 -3.40683594 1.36322266 -2.1640625 0.77734375 C-1.44992188 0.52082031 -0.73578125 0.26429687 0 0 Z " fill="#565252" transform="translate(70,8)"/>
<path d="M0 0 C2.64 0.33 5.28 0.66 8 1 C7.67 1.99 7.34 2.98 7 4 C3.37 3.67 -0.26 3.34 -4 3 C-2.68 2.67 -1.36 2.34 0 2 C0 1.34 0 0.68 0 0 Z " fill="#56524A" transform="translate(92,222)"/>
<path d="M0 0 C5.75 0.875 5.75 0.875 8 2 C8 2.99 8 3.98 8 5 C5.23723823 4.47731534 2.6739124 3.89130413 0 3 C0 2.01 0 1.02 0 0 Z " fill="#393333" transform="translate(140,27)"/>
<path d="M0 0 C-1.44253657 3.36591866 -3.33264727 5.51047079 -6 8 C-6.66 7.67 -7.32 7.34 -8 7 C-6.76759083 3.3027725 -4.20634615 0 0 0 Z " fill="#504E4B" transform="translate(71,128)"/>
<path d="M0 0 C0.33 0.66 0.66 1.32 1 2 C0.00390625 3.9453125 0.00390625 3.9453125 -1.4375 6.125 C-1.91058594 6.84945312 -2.38367187 7.57390625 -2.87109375 8.3203125 C-3.24363281 8.87460938 -3.61617187 9.42890625 -4 10 C-4.66 9.34 -5.32 8.68 -6 8 C-4.73058503 4.08597051 -3.48832306 2.20927127 0 0 Z " fill="#22201B" transform="translate(49,102)"/>
<path d="M0 0 C0.33 0 0.66 0 1 0 C1.33 3.63 1.66 7.26 2 11 C1.01 11 0.02 11 -1 11 C-1.125 3.375 -1.125 3.375 0 0 Z " fill="#545454" transform="translate(224,92)"/>
<path d="M0 0 C1.08667969 0.01804687 2.17335938 0.03609375 3.29296875 0.0546875 C4.54013672 0.08949219 4.54013672 0.08949219 5.8125 0.125 C5.8125 0.455 5.8125 0.785 5.8125 1.125 C4.06465171 1.48963732 2.31409498 1.8413078 0.5625 2.1875 C-0.89929688 2.48333984 -0.89929688 2.48333984 -2.390625 2.78515625 C-5.055619 3.10897535 -6.67621723 2.98003199 -9.1875 2.125 C-5.66070901 -0.22619399 -4.15870515 -0.08943452 0 0 Z " fill="#060502" transform="translate(85.1875,78.875)"/>
<path d="M0 0 C0.66 0.66 1.32 1.32 2 2 C-2.455 2.495 -2.455 2.495 -7 3 C-7 2.01 -7 1.02 -7 0 C-3.98968256 -0.93423645 -3.13349732 -1.04449911 0 0 Z " fill="#4B4842" transform="translate(140,222)"/>
<path d="M0 0 C4.29 0.33 8.58 0.66 13 1 C13 1.33 13 1.66 13 2 C11.02 2 9.04 2 7 2 C7 2.66 7 3.32 7 4 C5.35 3.67 3.7 3.34 2 3 C2 2.34 2 1.68 2 1 C1.34 0.67 0.68 0.34 0 0 Z " fill="#6B6966" transform="translate(95,200)"/>
<path d="M0 0 C0.66 0 1.32 0 2 0 C1.67 3.63 1.34 7.26 1 11 C-1.30441554 7.54337669 -1.25860135 6.05142119 -1 2 C-0.67 1.34 -0.34 0.68 0 0 Z " fill="#545454" transform="translate(224,124)"/>
<path d="M0 0 C0.66 0 1.32 0 2 0 C2 3.3 2 6.6 2 10 C1.01 9.34 0.02 8.68 -1 8 C-0.67 5.36 -0.34 2.72 0 0 Z " fill="#3A3936" transform="translate(53,158)"/>
<path d="M0 0 C0.33 1.32 0.66 2.64 1 4 C-0.98 4.66 -2.96 5.32 -5 6 C-3.63016497 2.83884224 -3.0109362 2.0072908 0 0 Z " fill="#2F2A1F" transform="translate(72,124)"/>
<path d="M0 0 C1.9375 0.6875 1.9375 0.6875 4 2 C4.75 4.625 4.75 4.625 5 7 C4.01 7 3.02 7 2 7 C1.34 4.69 0.68 2.38 0 0 Z " fill="#353030" transform="translate(186,119)"/>
<path d="M0 0 C1.09658936 3.28976808 0.79953138 4.71303767 0 8 C-1.32 8.33 -2.64 8.66 -4 9 C-2.94124926 5.59687262 -1.99097846 2.98646769 0 0 Z " fill="#64635F" transform="translate(43,108)"/>
<path d="M0 0 C0.33 0 0.66 0 1 0 C1 3.96 1 7.92 1 12 C0.01 12.33 -0.98 12.66 -2 13 C-1.34 8.71 -0.68 4.42 0 0 Z " fill="#0D0B06" transform="translate(101,95)"/>
<path d="M0 0 C2 1 2 1 3 3 C-2.75 6 -2.75 6 -5 6 C-3.63016497 2.83884224 -3.0109362 2.0072908 0 0 Z " fill="#464242" transform="translate(75,30)"/>
<path d="M0 0 C2.31 0.33 4.62 0.66 7 1 C7 1.33 7 1.66 7 2 C5.35 2.33 3.7 2.66 2 3 C1.67 4.65 1.34 6.3 1 8 C0.01 6.68 -0.98 5.36 -2 4 C-1.34 2.68 -0.68 1.36 0 0 Z " fill="#696363" transform="translate(139,90)"/>
<path d="M0 0 C0.66 0.33 1.32 0.66 2 1 C-0.46153846 5.8 -0.46153846 5.8 -3.1875 6.8125 C-3.785625 6.874375 -4.38375 6.93625 -5 7 C-3.75023244 3.34683329 -3.32901247 2.21934164 0 0 Z " fill="#615A5A" transform="translate(131,79)"/>
<path d="M0 0 C-0.99 1.485 -0.99 1.485 -2 3 C-5.125 3.1875 -5.125 3.1875 -8 3 C-6 0 -6 0 -4 -0.75 C-2 -1 -2 -1 0 0 Z " fill="#2A261F" transform="translate(147,220)"/>
<path d="M0 0 C2 3.75 2 3.75 2 6 C1.34 6 0.68 6 0 6 C-0.33 6.99 -0.66 7.98 -1 9 C-1.33 6.36 -1.66 3.72 -2 1 C-1.34 0.67 -0.68 0.34 0 0 Z " fill="#5B564B" transform="translate(4,135)"/>
<path d="M0 0 C0.99 0.33 1.98 0.66 3 1 C3 2.98 3 4.96 3 7 C2.01 7.495 2.01 7.495 1 8 C0.67 5.36 0.34 2.72 0 0 Z " fill="#28251E" transform="translate(25,134)"/>
<path d="M0 0 C0.66 0.33 1.32 0.66 2 1 C0.61918777 5.1424367 -1.59825558 6.32203099 -5 9 C-5.66 8.67 -6.32 8.34 -7 8 C-4.69 5.36 -2.38 2.72 0 0 Z " fill="#13110C" transform="translate(63,86)"/>
<path d="M0 0 C0.66 0.66 1.32 1.32 2 2 C1.01 3.98 0.02 5.96 -1 8 C-3 5 -3 5 -2.75 2.875 C-2 1 -2 1 0 0 Z " fill="#56534E" transform="translate(36,66)"/>
<path d="M0 0 C0.33 0.99 0.66 1.98 1 3 C-0.32 4.32 -1.64 5.64 -3 7 C-3.33 5.68 -3.66 4.36 -4 3 C-2.68 2.01 -1.36 1.02 0 0 Z " fill="#484641" transform="translate(44,55)"/>
<path d="M0 0 C-1.97420135 2.52259061 -2.96745642 2.9929808 -6.1875 3.6875 C-7.5796875 3.8421875 -7.5796875 3.8421875 -9 4 C-6.35287314 0.09233654 -4.86783735 -1.62261245 0 0 Z " fill="#434040" transform="translate(84,5)"/>
<path d="M0 0 C0.99 0.33 1.98 0.66 3 1 C2.67 3.64 2.34 6.28 2 9 C-0.29013653 5.5647952 -0.17842973 4.014669 0 0 Z " fill="#524949" transform="translate(221,135)"/>
<path d="M0 0 C0.66 0.66 1.32 1.32 2 2 C1.625 5.125 1.625 5.125 1 8 C-0.74627478 5.38058783 -1.38722388 3.96175123 -2 1 C-1.34 0.67 -0.68 0.34 0 0 Z " fill="#524E4E" transform="translate(195,75)"/>
<path d="M0 0 C0 1.65 0 3.3 0 5 C-0.66 5 -1.32 5 -2 5 C-3.62514468 6.45833358 -3.62514468 6.45833358 -5 8 C-4.40138258 5.64828869 -3.73075648 3.3140622 -3 1 C-1 0 -1 0 0 0 Z " fill="#676363" transform="translate(200,137)"/>
<path d="M0 0 C0.33 0 0.66 0 1 0 C1.33 2.64 1.66 5.28 2 8 C1.01 7.67 0.02 7.34 -1 7 C-1.04254356 5.00045254 -1.04080783 2.99958364 -1 1 C-0.67 0.67 -0.34 0.34 0 0 Z " fill="#140909" transform="translate(201,92)"/>
<path d="M0 0 C0.99 0.66 1.98 1.32 3 2 C1.1875 3.5625 1.1875 3.5625 -1 5 C-1.99 4.67 -2.98 4.34 -4 4 C-2.68 2.68 -1.36 1.36 0 0 Z " fill="#474646" transform="translate(62,38)"/>
</svg>
